<svg width="63" height="63" viewBox="0 0 63 63" fill="none" xmlns="http://www.w3.org/2000/svg">
<path d="M17 49C15.9 49 14.9587 48.6087 14.176 47.826C13.3933 47.0433 13.0013 46.1013 13 45V20.05C13 19.5833 13.0753 19.1333 13.226 18.7C13.3767 18.2667 13.6013 17.8667 13.9 17.5L16.4 14.45C16.7667 13.9833 17.2247 13.6247 17.774 13.374C18.3233 13.1233 18.8987 12.9987 19.5 13H42.5C43.1 13 43.6753 13.1253 44.226 13.376C44.7767 13.6267 45.2347 13.9847 45.6 14.45L48.1 17.5C48.4 17.8667 48.6253 18.2667 48.776 18.7C48.9267 19.1333 49.0013 19.5833 49 20.05V45C49 46.1 48.6087 47.042 47.826 47.826C47.0433 48.61 46.1013 49.0013 45 49H17ZM17.8 19H44.2L42.5 17H19.5L17.8 19ZM39 23H23V39L31 35L39 39V23Z" fill="#E8E0D1"/>
</svg>
