<svg width="48" height="48" viewBox="0 0 48 48" fill="none" xmlns="http://www.w3.org/2000/svg">
<path d="M2 4H8L14 26M14 26L12 34H42M14 26H38L44 8H9.09L14 26ZM14 42C14 42.5304 13.7893 43.0391 13.4142 43.4142C13.0391 43.7893 12.5304 44 12 44C11.4696 44 10.9609 43.7893 10.5858 43.4142C10.2107 43.0391 10 42.5304 10 42C10 41.4696 10.2107 40.9609 10.5858 40.5858C10.9609 40.2107 11.4696 40 12 40C12.5304 40 13.0391 40.2107 13.4142 40.5858C13.7893 40.9609 14 41.4696 14 42ZM42 42C42 42.5304 41.7893 43.0391 41.4142 43.4142C41.0391 43.7893 40.5304 44 40 44C39.4696 44 38.9609 43.7893 38.5858 43.4142C38.2107 43.0391 38 42.5304 38 42C38 41.4696 38.2107 40.9609 38.5858 40.5858C38.9609 40.2107 39.4696 40 40 40C40.5304 40 41.0391 40.2107 41.4142 40.5858C41.7893 40.9609 42 41.4696 42 42Z" stroke="#0F0600" stroke-width="4" stroke-linecap="square"/>
</svg>
