<svg width="48" height="48" viewBox="0 0 48 48" fill="none" xmlns="http://www.w3.org/2000/svg">
<path d="M0 2H9.528L10.618 6H46.774L39.442 28H15.56L14.56 32H44V36H9.44L11.932 26.022L6.472 6H0V2ZM8 42C8 40.9391 8.42143 39.9217 9.17157 39.1716C9.92172 38.4214 10.9391 38 12 38C13.0609 38 14.0783 38.4214 14.8284 39.1716C15.5786 39.9217 16 40.9391 16 42C16 43.0609 15.5786 44.0783 14.8284 44.8284C14.0783 45.5786 13.0609 46 12 46C10.9391 46 9.92172 45.5786 9.17157 44.8284C8.42143 44.0783 8 43.0609 8 42ZM36 42C36 40.9391 36.4214 39.9217 37.1716 39.1716C37.9217 38.4214 38.9391 38 40 38C41.0609 38 42.0783 38.4214 42.8284 39.1716C43.5786 39.9217 44 40.9391 44 42C44 43.0609 43.5786 44.0783 42.8284 44.8284C42.0783 45.5786 41.0609 46 40 46C38.9391 46 37.9217 45.5786 37.1716 44.8284C36.4214 44.0783 36 43.0609 36 42Z" fill="#E8E0D1"/>
</svg>
