<svg width="361" height="361" viewBox="0 0 361 361" fill="none" xmlns="http://www.w3.org/2000/svg">
<path d="M162.45 234.65H198.55V270.75H162.45V234.65ZM162.45 90.25H198.55V198.55H162.45V90.25ZM180.5 0C80.6835 0 0 81.225 0 180.5C0 228.372 19.0169 274.282 52.8672 308.133C69.6282 324.894 89.5264 338.189 111.426 347.26C133.325 356.331 156.796 361 180.5 361C228.372 361 274.282 341.983 308.133 308.133C341.983 274.282 361 228.372 361 180.5C361 156.796 356.331 133.325 347.26 111.426C338.189 89.5264 324.894 69.6282 308.133 52.8672C291.372 36.1063 271.474 22.8107 249.574 13.7397C227.675 4.66877 204.204 0 180.5 0ZM180.5 324.9C142.203 324.9 105.474 309.686 78.3938 282.606C51.3135 255.526 36.1 218.797 36.1 180.5C36.1 142.203 51.3135 105.474 78.3938 78.3938C105.474 51.3135 142.203 36.1 180.5 36.1C218.797 36.1 255.526 51.3135 282.606 78.3938C309.686 105.474 324.9 142.203 324.9 180.5C324.9 218.797 309.686 255.526 282.606 282.606C255.526 309.686 218.797 324.9 180.5 324.9Z" fill="#E8E0D1"/>
</svg>
