<svg width="63" height="63" viewBox="0 0 63 63" fill="none" xmlns="http://www.w3.org/2000/svg">
<path d="M35.1032 41.7577V35.6944C35.1032 35.2048 34.9135 34.7352 34.5757 34.3889C34.2379 34.0427 33.7798 33.8481 33.3021 33.8481H29.6997C29.222 33.8481 28.7639 34.0427 28.4261 34.3889C28.0883 34.7352 27.8985 35.2048 27.8985 35.6944V41.754C25.161 42.4716 22.6906 44.0005 20.796 46.1494C18.9014 48.2983 17.6668 50.9719 17.2464 53.8361C17.2053 54.1031 17.2211 54.376 17.2927 54.6362C17.3643 54.8963 17.49 55.1374 17.6611 55.343C17.8323 55.5486 18.0448 55.7138 18.2841 55.8272C18.5235 55.9406 18.7839 55.9996 19.0476 56H43.983C44.2467 55.9996 44.5071 55.9406 44.7464 55.8272C44.9858 55.7138 45.1983 55.5486 45.3695 55.343C45.5406 55.1374 45.6663 54.8963 45.7379 54.6362C45.8095 54.376 45.8253 54.1031 45.7842 53.8361C45.3611 50.9688 44.1219 48.2933 42.2219 46.1447C40.3219 43.9961 37.8456 42.47 35.1032 41.7577ZM51.8145 27.4932L42.8086 9.03023C42.6604 8.72187 42.4311 8.46206 42.1466 8.28004C41.8622 8.09802 41.5337 8.00104 41.1984 8H21.8034C21.4698 8.0007 21.1429 8.09635 20.8592 8.2763C20.5755 8.45625 20.3462 8.71343 20.1967 9.01916L11.1909 27.4821C11.0537 27.7628 10.9886 28.0746 11.0016 28.3883C11.0147 28.7019 11.1056 29.0069 11.2657 29.2745C11.4258 29.5421 11.6498 29.7634 11.9166 29.9176C12.1834 30.0718 12.4841 30.1537 12.7903 30.1556H42.3079V35.6944C42.3079 36.1841 42.4977 36.6537 42.8355 37C43.1732 37.3462 43.6314 37.5407 44.1091 37.5407C44.5868 37.5407 45.0449 37.3462 45.3827 37C45.7205 36.6537 45.9102 36.1841 45.9102 35.6944V30.1556H50.2114C50.5165 30.1534 50.816 30.0718 51.0819 29.9185C51.3478 29.7651 51.5713 29.5451 51.7316 29.279C51.8918 29.0129 51.9835 28.7094 51.998 28.3971C52.0125 28.0847 51.9493 27.7737 51.8145 27.4932Z" fill="#E8E0D1"/>
</svg>
