<svg width="63" height="63" viewBox="0 0 63 63" fill="none" xmlns="http://www.w3.org/2000/svg">
<path d="M56.1205 12H6.87948C5.29594 12 4 13.4418 4 14.8676C4 16.2933 5.29594 17.734 6.87948 17.734H7.575V23.4691H55.4949V17.734H56.1205C57.7052 17.734 59 16.2933 59 14.8676C59 13.4418 57.7052 12 56.1205 12ZM31.5 20.6256C30.7048 20.6256 30.0608 19.9615 30.0608 19.1437C30.0608 18.3258 30.7048 17.6617 31.5 17.6617C32.2964 17.6617 32.9392 18.3258 32.9392 19.1437C32.9392 19.9615 32.2964 20.6256 31.5 20.6256ZM7.575 34.9382H55.4949V25.7643H7.575V34.9382ZM31.5 28.7741C32.2964 28.7741 32.9392 29.4371 32.9392 30.2549C32.9392 31.0739 32.2964 31.7369 31.5 31.7369C30.7048 31.7369 30.0608 31.0739 30.0608 30.2549C30.0597 29.4371 30.7048 28.7741 31.5 28.7741ZM7.575 42.8492V49.518C7.575 50.3324 7.67698 51 8.46875 51H14.2254C15.0172 51 15.3758 50.3324 15.3758 49.518V45.2626H47.6941V49.518C47.6941 50.3324 47.9828 51 48.7734 51H54.5313C55.3207 51 55.4938 50.3324 55.4938 49.518V37.2346H7.575V42.8492ZM31.5 39.8865C32.2964 39.8865 32.9392 40.5506 32.9392 41.3673C32.9392 42.1874 32.2964 42.8481 31.5 42.8481C30.7048 42.8481 30.0608 42.1874 30.0608 41.3673C30.0597 40.5517 30.7048 39.8865 31.5 39.8865Z" fill="#E8E0D1"/>
</svg>
