<svg width="63" height="63" viewBox="0 0 63 63" fill="none" xmlns="http://www.w3.org/2000/svg">
<path d="M25.1 16C27.492 16 29.838 16.5486 32 17.5543C34.162 16.5486 36.508 16 38.9 16C43.17 16 47.2651 17.6857 50.2844 20.6863C53.3038 23.6869 55 27.7565 55 32C55 36.2435 53.3038 40.3131 50.2844 43.3137C47.2651 46.3143 43.17 48 38.9 48C36.508 48 34.162 47.4514 32 46.4457C29.838 47.4514 27.492 48 25.1 48C20.83 48 16.7349 46.3143 13.7156 43.3137C10.6962 40.3131 9 36.2435 9 32C9 27.7565 10.6962 23.6869 13.7156 20.6863C16.7349 17.6857 20.83 16 25.1 16ZM23.95 32C23.95 36.2743 25.767 40.1371 28.688 42.8571L30.988 41.8057C28.113 39.52 26.25 35.9771 26.25 32C26.25 28.0229 28.113 24.48 30.988 22.1943L28.688 21.1429C27.1919 22.5334 25.9993 24.2147 25.1843 26.0824C24.3693 27.9501 23.9491 29.9643 23.95 32ZM40.05 32C40.05 27.7257 38.233 23.8629 35.312 21.1429L33.012 22.1943C35.887 24.48 37.75 28.0229 37.75 32C37.75 35.9771 35.887 39.52 33.012 41.8057L35.312 42.8571C36.8081 41.4666 38.0007 39.7853 38.8157 37.9176C39.6307 36.0499 40.0509 34.0357 40.05 32Z" fill="#E8E0D1"/>
</svg>
