<svg width="58" height="58" viewBox="0 0 58 58" fill="none" xmlns="http://www.w3.org/2000/svg">
<path d="M28.9997 16.9167C29.6845 16.9167 30.2588 16.6847 30.7228 16.2207C31.1868 15.7567 31.418 15.1831 31.4164 14.5C31.4148 13.8169 31.1828 13.2433 30.7204 12.7793C30.258 12.3153 29.6845 12.0833 28.9997 12.0833C28.315 12.0833 27.7415 12.3153 27.2791 12.7793C26.8167 13.2433 26.5847 13.8169 26.5831 14.5C26.5815 15.1831 26.8135 15.7575 27.2791 16.2231C27.7447 16.6887 28.3182 16.9199 28.9997 16.9167ZM8.94141 50.75L13.7747 16.9167H22.1727C22.0518 16.5139 21.9511 16.1208 21.8706 15.7373C21.79 15.3539 21.7497 14.9414 21.7497 14.5C21.7497 12.4861 22.4546 10.7743 23.8643 9.36458C25.274 7.95486 26.9859 7.25 28.9997 7.25C31.0136 7.25 32.7254 7.95486 34.1352 9.36458C35.5449 10.7743 36.2497 12.4861 36.2497 14.5C36.2497 14.9431 36.2095 15.3563 36.1289 15.7398C36.0483 16.1232 35.9477 16.5155 35.8268 16.9167H44.2247L49.0581 50.75H8.94141Z" fill="#E8E0D1"/>
</svg>
