<svg width="62" height="62" viewBox="0 0 62 62" fill="none" xmlns="http://www.w3.org/2000/svg">
<path d="M29.3741 6C26.3865 6 23.6508 6.6975 21.5273 7.97625C19.3999 9.25112 17.7491 11.27 17.7491 13.75V21.5C17.7491 21.872 17.6019 22.3254 17.1834 22.0657L13.3084 18.1907C12.9446 17.8275 12.4514 17.6236 11.9372 17.6239C11.4231 17.6243 10.9301 17.8289 10.5668 18.1927C10.2035 18.5565 9.99964 19.0497 10 19.5639C10.0004 20.078 10.205 20.571 10.5688 20.9343L14.4438 24.8093C16.3813 26.7468 17.7491 27.9596 17.7491 31.1875V48.625C17.7491 51.105 19.3999 53.1239 21.5273 54.3987C23.6508 55.6775 26.3865 56.375 29.3741 56.375C32.3618 56.375 35.0975 55.6775 37.221 54.3987C39.3484 53.1239 40.9991 51.105 40.9991 48.625V42.8125C40.9991 37.4301 42.8204 32.9506 45.9475 30.862L51.76 26.987C51.9799 26.8497 52.17 26.6697 52.3191 26.4576C52.4681 26.2456 52.5731 26.0057 52.6278 25.7524C52.6825 25.499 52.6858 25.2372 52.6375 24.9825C52.5892 24.7278 52.4903 24.4854 52.3466 24.2697C52.203 24.0539 52.0175 23.8692 51.8011 23.7264C51.5847 23.5836 51.3419 23.4857 51.0871 23.4385C50.8322 23.3912 50.5704 23.3956 50.3173 23.4513C50.0641 23.5071 49.8247 23.6131 49.6133 23.763L43.7388 27.6767C42.0221 28.8199 40.9991 27.2892 40.9991 26.1655V13.75C40.9991 11.27 39.3484 9.25112 37.221 7.97625C35.0975 6.6975 32.3618 6 29.3741 6ZM29.3741 9.875C31.7379 9.875 33.8459 10.4718 35.2254 11.2971C36.6049 12.1264 37.1241 13.0176 37.1241 13.75C37.1241 14.4824 36.6049 15.3775 35.2254 16.2029C33.8459 17.0282 31.7379 17.625 29.3741 17.625C27.0104 17.625 24.9024 17.0282 23.5229 16.2029C22.1434 15.3736 21.6241 14.4824 21.6241 13.75C21.6241 13.0176 22.1434 12.1225 23.5229 11.2971C24.9024 10.4718 27.0104 9.875 29.3741 9.875Z" fill="#E8E0D1"/>
</svg>
